<svg width="75" height="75" viewBox="0 0 75 75" fill="none" xmlns="http://www.w3.org/2000/svg">
<g clip-path="url(#clip0_6_354)">
<path d="M68.7988 1.44043C69.3959 0.992742 70.2319 1.05231 70.7597 1.58008L73.4199 4.24023C73.9476 4.768 74.0072 5.60401 73.5595 6.20117L70.5273 10.2441C69.7808 11.2394 69.88 12.632 70.7597 13.5117L73.2324 15.9844C73.8181 16.5702 73.8182 17.5207 73.2324 18.1064L70.9472 20.3916C69.9709 21.3679 69.9709 22.9505 70.9472 23.9268L73.2324 26.2119C73.818 26.7976 73.8179 27.7472 73.2324 28.333L70.9472 30.6182C69.9709 31.5945 69.9709 33.178 70.9472 34.1543L73.2324 36.4395C73.8179 37.0252 73.8179 37.9748 73.2324 38.5605L70.9472 40.8457C69.9709 41.822 69.9709 43.4055 70.9472 44.3818L73.2324 46.667C73.8179 47.2528 73.818 48.2024 73.2324 48.7881L70.9472 51.0732C69.9709 52.0495 69.9709 53.6321 70.9472 54.6084L73.2324 56.8936C73.8181 57.4793 73.8181 58.4298 73.2324 59.0156L70.7597 61.4883C69.88 62.368 69.7808 63.7606 70.5273 64.7559L73.5595 68.7988C74.0072 69.396 73.9476 70.232 73.4199 70.7598L70.7597 73.4199C70.2319 73.9477 69.3959 74.0073 68.7988 73.5596L64.7558 70.5273C63.7605 69.7809 62.3679 69.88 61.4882 70.7598L59.0156 73.2324C58.4298 73.8182 57.4793 73.8182 56.8935 73.2324L54.6083 70.9473C53.632 69.971 52.0495 69.971 51.0732 70.9473L48.788 73.2324C48.2023 73.8181 47.2527 73.8179 46.6669 73.2324L44.3818 70.9473C43.4055 69.971 41.822 69.971 40.8456 70.9473L38.5605 73.2324C37.9747 73.818 37.0251 73.818 36.4394 73.2324L34.1542 70.9473C33.1779 69.971 31.5944 69.971 30.6181 70.9473L28.3329 73.2324C27.7471 73.8179 26.7975 73.8181 26.2119 73.2324L23.9267 70.9473C22.9504 69.971 21.3679 69.971 20.3915 70.9473L18.1064 73.2324C17.5206 73.8182 16.5701 73.8182 15.9843 73.2324L13.5117 70.7598C12.6319 69.88 11.2394 69.7809 10.2441 70.5273L6.20111 73.5596C5.60395 74.0073 4.76794 73.9477 4.24017 73.4199L1.58002 70.7598C1.05225 70.232 0.99268 69.396 1.44037 68.7988L4.4726 64.7559C5.21907 63.7606 5.1199 62.368 4.24017 61.4883L1.76752 59.0156C1.18173 58.4298 1.18173 57.4793 1.76752 56.8936L4.05267 54.6084C5.02897 53.6321 5.02898 52.0495 4.05267 51.0732L1.76752 48.7881C1.18184 48.2024 1.18202 47.2528 1.76752 46.667L4.05267 44.3818C5.02898 43.4055 5.02898 41.822 4.05267 40.8457L1.76752 38.5605C1.18193 37.9748 1.18193 37.0252 1.76752 36.4395L4.05267 34.1543C5.02899 33.178 5.02898 31.5945 4.05267 30.6182L1.76752 28.333C1.18202 27.7472 1.18184 26.7976 1.76752 26.2119L4.05267 23.9268C5.02898 22.9505 5.02897 21.3679 4.05267 20.3916L1.76752 18.1064C1.18173 17.5207 1.18173 16.5702 1.76752 15.9844L4.24017 13.5117C5.1199 12.632 5.21907 11.2394 4.4726 10.2441L1.44037 6.20117C0.992682 5.60401 1.05225 4.768 1.58002 4.24023L4.24017 1.58008C4.76794 1.05231 5.60395 0.992743 6.20111 1.44043L10.2441 4.47266C11.2394 5.21913 12.6319 5.11996 13.5117 4.24023L15.9843 1.76758C16.5701 1.18179 17.5206 1.18179 18.1064 1.76758L20.3915 4.05273C21.3679 5.02903 22.9504 5.02904 23.9267 4.05273L26.2119 1.76758C26.7975 1.1819 27.7471 1.18208 28.3329 1.76758L30.6181 4.05273C31.5944 5.02905 33.1779 5.02904 34.1542 4.05273L36.4394 1.76758C37.0251 1.18199 37.9747 1.18199 38.5605 1.76758L40.8456 4.05273C41.822 5.02905 43.4055 5.02904 44.3818 4.05273L46.6669 1.76758C47.2527 1.18208 48.2023 1.1819 48.788 1.76758L51.0732 4.05273C52.0495 5.02904 53.632 5.02903 54.6083 4.05273L56.8935 1.76758C57.4793 1.18179 58.4298 1.18179 59.0156 1.76758L61.4882 4.24023C62.368 5.11996 63.7605 5.21913 64.7558 4.47266L68.7988 1.44043Z" fill="#F0E2CE" stroke="#D7B19D" stroke-miterlimit="10" stroke-linecap="round" stroke-linejoin="round"/>
<path d="M30.2638 29.5139C30.2638 29.9334 30.3464 30.3488 30.507 30.7364C30.6675 31.1239 30.9028 31.4761 31.1994 31.7727C31.4961 32.0693 31.8482 32.3046 32.2358 32.4652C32.6233 32.6257 33.0387 32.7083 33.4582 32.7083C33.8777 32.7083 34.2931 32.6257 34.6807 32.4652C35.0683 32.3046 35.4204 32.0693 35.7171 31.7727C36.0137 31.4761 36.249 31.1239 36.4095 30.7364C36.5701 30.3488 36.6527 29.9334 36.6527 29.5139C36.6527 29.0944 36.5701 28.679 36.4095 28.2914C36.249 27.9039 36.0137 27.5517 35.7171 27.2551C35.4204 26.9585 35.0683 26.7232 34.6807 26.5626C34.2931 26.4021 33.8777 26.3195 33.4582 26.3195C33.0387 26.3195 32.6233 26.4021 32.2358 26.5626C31.8482 26.7232 31.4961 26.9585 31.1994 27.2551C30.9028 27.5517 30.6675 27.9039 30.507 28.2914C30.3464 28.679 30.2638 29.0944 30.2638 29.5139Z" stroke="#9C3E2C" stroke-width="2" stroke-linecap="round" stroke-linejoin="round"/>
<path d="M30.5833 30.9514L23.8749 35.9028V50.2778C23.8749 51.2361 24.5138 51.875 25.4722 51.875H51.0277C51.986 51.875 52.6249 51.2361 52.6249 50.2778V35.9028C52.6249 32.7083 47.8333 26.3194 41.4444 23.125L35.6944 27.2778" stroke="#9C3E2C" stroke-width="2" stroke-linecap="round" stroke-linejoin="round"/>
<path d="M44.6388 39.0973H23.8749" stroke="#9C3E2C" stroke-width="2" stroke-linecap="round" stroke-linejoin="round"/>
<path d="M44.6388 45.486H23.8749" stroke="#9C3E2C" stroke-width="2" stroke-linecap="round" stroke-linejoin="round"/>
</g>
<defs>
<clipPath id="clip0_6_354">
<rect width="75" height="75" fill="white"/>
</clipPath>
</defs>
</svg>
