<svg width="75" height="75" viewBox="0 0 75 75" fill="none" xmlns="http://www.w3.org/2000/svg">
<g clip-path="url(#clip0_6_362)">
<path d="M68.7988 1.44043C69.396 0.992742 70.232 1.05231 70.7598 1.58008L73.4199 4.24023C73.9477 4.768 74.0073 5.60401 73.5596 6.20117L70.5273 10.2441C69.7809 11.2394 69.88 12.632 70.7598 13.5117L73.2324 15.9844C73.8182 16.5702 73.8182 17.5207 73.2324 18.1064L70.9473 20.3916C69.971 21.3679 69.971 22.9505 70.9473 23.9268L73.2324 26.2119C73.8181 26.7976 73.8179 27.7472 73.2324 28.333L70.9473 30.6182C69.971 31.5945 69.971 33.178 70.9473 34.1543L73.2324 36.4395C73.818 37.0252 73.818 37.9748 73.2324 38.5605L70.9473 40.8457C69.971 41.822 69.971 43.4055 70.9473 44.3818L73.2324 46.667C73.8179 47.2528 73.8181 48.2024 73.2324 48.7881L70.9473 51.0732C69.971 52.0495 69.971 53.6321 70.9473 54.6084L73.2324 56.8936C73.8182 57.4793 73.8182 58.4298 73.2324 59.0156L70.7598 61.4883C69.88 62.368 69.7809 63.7606 70.5273 64.7559L73.5596 68.7988C74.0073 69.396 73.9477 70.232 73.4199 70.7598L70.7598 73.4199C70.232 73.9477 69.396 74.0073 68.7988 73.5596L64.7559 70.5273C63.7606 69.7809 62.368 69.88 61.4883 70.7598L59.0156 73.2324C58.4298 73.8182 57.4793 73.8182 56.8936 73.2324L54.6084 70.9473C53.6321 69.971 52.0495 69.971 51.0732 70.9473L48.7881 73.2324C48.2024 73.8181 47.2528 73.8179 46.667 73.2324L44.3818 70.9473C43.4055 69.971 41.822 69.971 40.8457 70.9473L38.5605 73.2324C37.9748 73.818 37.0252 73.818 36.4395 73.2324L34.1543 70.9473C33.178 69.971 31.5945 69.971 30.6182 70.9473L28.333 73.2324C27.7472 73.8179 26.7976 73.8181 26.2119 73.2324L23.9268 70.9473C22.9505 69.971 21.3679 69.971 20.3916 70.9473L18.1064 73.2324C17.5207 73.8182 16.5702 73.8182 15.9844 73.2324L13.5117 70.7598C12.632 69.88 11.2394 69.7809 10.2441 70.5273L6.20117 73.5596C5.60401 74.0073 4.768 73.9477 4.24023 73.4199L1.58008 70.7598C1.05231 70.232 0.992741 69.396 1.44043 68.7988L4.47266 64.7559C5.21913 63.7606 5.11997 62.368 4.24023 61.4883L1.76758 59.0156C1.18179 58.4298 1.18179 57.4793 1.76758 56.8936L4.05273 54.6084C5.02903 53.6321 5.02904 52.0495 4.05273 51.0732L1.76758 48.7881C1.1819 48.2024 1.18208 47.2528 1.76758 46.667L4.05273 44.3818C5.02904 43.4055 5.02905 41.822 4.05273 40.8457L1.76758 38.5605C1.18199 37.9748 1.18199 37.0252 1.76758 36.4395L4.05273 34.1543C5.02905 33.178 5.02904 31.5945 4.05273 30.6182L1.76758 28.333C1.18208 27.7472 1.1819 26.7976 1.76758 26.2119L4.05273 23.9268C5.02904 22.9505 5.02903 21.3679 4.05273 20.3916L1.76758 18.1064C1.18179 17.5207 1.18179 16.5702 1.76758 15.9844L4.24023 13.5117C5.11996 12.632 5.21913 11.2394 4.47266 10.2441L1.44043 6.20117C0.992743 5.60401 1.05231 4.768 1.58008 4.24023L4.24023 1.58008C4.768 1.05231 5.60401 0.992743 6.20117 1.44043L10.2441 4.47266C11.2394 5.21913 12.632 5.11996 13.5117 4.24023L15.9844 1.76758C16.5702 1.18179 17.5207 1.18179 18.1064 1.76758L20.3916 4.05273C21.3679 5.02903 22.9505 5.02904 23.9268 4.05273L26.2119 1.76758C26.7976 1.1819 27.7472 1.18208 28.333 1.76758L30.6182 4.05273C31.5945 5.02905 33.178 5.02904 34.1543 4.05273L36.4395 1.76758C37.0252 1.18199 37.9748 1.18199 38.5605 1.76758L40.8457 4.05273C41.822 5.02905 43.4055 5.02904 44.3818 4.05273L46.667 1.76758C47.2528 1.18208 48.2024 1.1819 48.7881 1.76758L51.0732 4.05273C52.0495 5.02904 53.6321 5.02903 54.6084 4.05273L56.8936 1.76758C57.4793 1.18179 58.4298 1.18179 59.0156 1.76758L61.4883 4.24023C62.368 5.11996 63.7606 5.21913 64.7559 4.47266L68.7988 1.44043Z" fill="#F0E2CE" stroke="#D7B19D" stroke-miterlimit="10" stroke-linecap="round" stroke-linejoin="round"/>
<path d="M15.7925 44.5V29.9545H24.8124V31.8438H17.9871V36.2756H24.1661V38.1577H17.9871V44.5H15.7925ZM27.3113 44.5V29.9545H32.496C33.6228 29.9545 34.558 30.1487 35.3013 30.5369C36.0495 30.9252 36.6082 31.4626 36.9775 32.1491C37.3468 32.831 37.5315 33.6193 37.5315 34.5142C37.5315 35.4044 37.3444 36.188 36.9704 36.8651C36.6011 37.5374 36.0424 38.0606 35.2942 38.4347C34.5509 38.8087 33.6157 38.9957 32.4888 38.9957H28.5613V37.1065H32.29C33.0002 37.1065 33.5779 37.0047 34.0229 36.8011C34.4728 36.5975 34.8018 36.3016 35.0102 35.9134C35.2185 35.5251 35.3227 35.0587 35.3227 34.5142C35.3227 33.965 35.2161 33.4891 35.0031 33.0866C34.7947 32.6842 34.4656 32.3764 34.0158 32.1634C33.5708 31.9455 32.986 31.8366 32.2616 31.8366H29.5059V44.5H27.3113ZM34.4917 37.9375L38.0854 44.5H35.5854L32.0627 37.9375H34.4917ZM40.0019 44.5V29.9545H49.1212V31.8438H42.1965V36.2756H48.6454V38.1577H42.1965V42.6108H49.2065V44.5H40.0019ZM51.8527 44.5V29.9545H60.972V31.8438H54.0473V36.2756H60.4962V38.1577H54.0473V42.6108H61.0572V44.5H51.8527Z" fill="#9C3E2C"/>
</g>
<defs>
<clipPath id="clip0_6_362">
<rect width="75" height="75" fill="white"/>
</clipPath>
</defs>
</svg>
