<svg width="75" height="75" viewBox="0 0 75 75" fill="none" xmlns="http://www.w3.org/2000/svg">
<g clip-path="url(#clip0_6_370)">
<path d="M68.7988 1.44043C69.396 0.992742 70.232 1.05231 70.7598 1.58008L73.4199 4.24023C73.9477 4.768 74.0073 5.60401 73.5596 6.20117L70.5273 10.2441C69.7809 11.2394 69.88 12.632 70.7598 13.5117L73.2324 15.9844C73.8182 16.5702 73.8182 17.5207 73.2324 18.1064L70.9473 20.3916C69.971 21.3679 69.971 22.9505 70.9473 23.9268L73.2324 26.2119C73.8181 26.7976 73.8179 27.7472 73.2324 28.333L70.9473 30.6182C69.971 31.5945 69.971 33.178 70.9473 34.1543L73.2324 36.4395C73.818 37.0252 73.818 37.9748 73.2324 38.5605L70.9473 40.8457C69.971 41.822 69.971 43.4055 70.9473 44.3818L73.2324 46.667C73.8179 47.2528 73.8181 48.2024 73.2324 48.7881L70.9473 51.0732C69.971 52.0495 69.971 53.6321 70.9473 54.6084L73.2324 56.8936C73.8182 57.4793 73.8182 58.4298 73.2324 59.0156L70.7598 61.4883C69.88 62.368 69.7809 63.7606 70.5273 64.7559L73.5596 68.7988C74.0073 69.396 73.9477 70.232 73.4199 70.7598L70.7598 73.4199C70.232 73.9477 69.396 74.0073 68.7988 73.5596L64.7559 70.5273C63.7606 69.7809 62.368 69.88 61.4883 70.7598L59.0156 73.2324C58.4298 73.8182 57.4793 73.8182 56.8936 73.2324L54.6084 70.9473C53.6321 69.971 52.0495 69.971 51.0732 70.9473L48.7881 73.2324C48.2024 73.8181 47.2528 73.8179 46.667 73.2324L44.3818 70.9473C43.4055 69.971 41.822 69.971 40.8457 70.9473L38.5605 73.2324C37.9748 73.818 37.0252 73.818 36.4395 73.2324L34.1543 70.9473C33.178 69.971 31.5945 69.971 30.6182 70.9473L28.333 73.2324C27.7472 73.8179 26.7976 73.8181 26.2119 73.2324L23.9268 70.9473C22.9505 69.971 21.3679 69.971 20.3916 70.9473L18.1064 73.2324C17.5207 73.8182 16.5702 73.8182 15.9844 73.2324L13.5117 70.7598C12.632 69.88 11.2394 69.7809 10.2441 70.5273L6.20117 73.5596C5.60401 74.0073 4.768 73.9477 4.24023 73.4199L1.58008 70.7598C1.05231 70.232 0.992741 69.396 1.44043 68.7988L4.47266 64.7559C5.21913 63.7606 5.11997 62.368 4.24023 61.4883L1.76758 59.0156C1.18179 58.4298 1.18179 57.4793 1.76758 56.8936L4.05273 54.6084C5.02903 53.6321 5.02904 52.0495 4.05273 51.0732L1.76758 48.7881C1.1819 48.2024 1.18208 47.2528 1.76758 46.667L4.05273 44.3818C5.02904 43.4055 5.02905 41.822 4.05273 40.8457L1.76758 38.5605C1.18199 37.9748 1.18199 37.0252 1.76758 36.4395L4.05273 34.1543C5.02905 33.178 5.02904 31.5945 4.05273 30.6182L1.76758 28.333C1.18208 27.7472 1.1819 26.7976 1.76758 26.2119L4.05273 23.9268C5.02904 22.9505 5.02903 21.3679 4.05273 20.3916L1.76758 18.1064C1.18179 17.5207 1.18179 16.5702 1.76758 15.9844L4.24023 13.5117C5.11996 12.632 5.21913 11.2394 4.47266 10.2441L1.44043 6.20117C0.992743 5.60401 1.05231 4.768 1.58008 4.24023L4.24023 1.58008C4.768 1.05231 5.60401 0.992743 6.20117 1.44043L10.2441 4.47266C11.2394 5.21913 12.632 5.11996 13.5117 4.24023L15.9844 1.76758C16.5702 1.18179 17.5207 1.18179 18.1064 1.76758L20.3916 4.05273C21.3679 5.02903 22.9505 5.02904 23.9268 4.05273L26.2119 1.76758C26.7976 1.1819 27.7472 1.18208 28.333 1.76758L30.6182 4.05273C31.5945 5.02905 33.178 5.02904 34.1543 4.05273L36.4395 1.76758C37.0252 1.18199 37.9748 1.18199 38.5605 1.76758L40.8457 4.05273C41.822 5.02905 43.4055 5.02904 44.3818 4.05273L46.667 1.76758C47.2528 1.18208 48.2024 1.1819 48.7881 1.76758L51.0732 4.05273C52.0495 5.02904 53.6321 5.02903 54.6084 4.05273L56.8936 1.76758C57.4793 1.18179 58.4298 1.18179 59.0156 1.76758L61.4883 4.24023C62.368 5.11996 63.7606 5.21913 64.7559 4.47266L68.7988 1.44043Z" fill="#F0E2CE" stroke="#D7B19D" stroke-miterlimit="10" stroke-linecap="round" stroke-linejoin="round"/>
<path d="M28.45 36.1H48.05C48.05 36.1 50.85 36.1 50.85 38.9V48.7C50.85 48.7 50.85 51.5 48.05 51.5H28.45C28.45 51.5 25.65 51.5 25.65 48.7V38.9C25.65 38.9 25.65 36.1 28.45 36.1Z" stroke="#9C3E2C" stroke-width="2" stroke-linecap="round" stroke-linejoin="round"/>
<path d="M31.25 36.1V30.5C31.25 28.6435 31.9875 26.863 33.3003 25.5503C34.613 24.2375 36.3935 23.5 38.25 23.5C40.1065 23.5 41.887 24.2375 43.1997 25.5503C44.5125 26.863 45.25 28.6435 45.25 30.5V36.1" stroke="#9C3E2C" stroke-width="2" stroke-linecap="round" stroke-linejoin="round"/>
</g>
<defs>
<clipPath id="clip0_6_370">
<rect width="75" height="75" fill="white"/>
</clipPath>
</defs>
</svg>
