<svg width="32" height="32" viewBox="0 0 32 32" fill="none" xmlns="http://www.w3.org/2000/svg">
<path d="M8.08004 27.8833C9.69337 28.6167 11.7467 28.6167 13.36 27.8833C14.9734 27.15 17.0267 27.15 18.64 27.8833C20.2534 28.6167 22.3067 28.6167 23.92 27.8833M16 4V6.66667M5.33329 17.3333H2.66663M8.41878 9.75215L6.53316 7.86654M23.5807 9.75215L25.4663 7.86654M29.3333 17.3333H26.6666M9.33329 17.3333C9.33329 13.6514 12.3181 10.6667 16 10.6667C19.6819 10.6667 22.6666 13.6514 22.6666 17.3333M2.80009 23.2167C4.41342 22.4833 6.46676 22.4833 8.08009 23.2167C9.69342 23.95 11.7468 23.95 13.3601 23.2167C14.9734 22.4833 17.0268 22.4833 18.6401 23.2167C20.2534 23.95 22.3068 23.95 23.9201 23.2167C25.5334 22.4833 27.5868 22.4833 29.2001 23.2167" stroke="#9C3E2C" stroke-width="2" stroke-linecap="square"/>
</svg>
