<svg width="1366" height="14" viewBox="0 0 1366 14" fill="none" xmlns="http://www.w3.org/2000/svg">
<path d="M187.172 -88.8284C188.734 -87.2663 188.734 -84.7337 187.172 -83.1716L179.192 -75.1921C177.63 -73.63 177.63 -71.0973 179.192 -69.5352L187.172 -61.5557C188.734 -59.9936 188.734 -57.4609 187.172 -55.8988L179.192 -47.9193C177.63 -46.3572 177.63 -43.8246 179.192 -42.2625L187.172 -34.283C188.734 -32.7209 188.734 -30.1882 187.172 -28.6261L178.817 -20.2713C177.409 -18.8637 177.251 -16.6353 178.445 -15.0428L187.918 -2.41171C189.113 -0.819229 188.954 1.40915 187.547 2.81671L178.817 11.5469C177.409 12.9545 175.181 13.1129 173.588 11.9185L160.957 2.44514C159.365 1.25078 157.136 1.40915 155.729 2.81671L147.374 11.1716C145.812 12.7337 143.279 12.7337 141.717 11.1716L133.738 3.19206C132.175 1.62996 129.643 1.62996 128.081 3.19206L120.101 11.1716C118.539 12.7337 116.006 12.7337 114.444 11.1716L106.465 3.19206C104.903 1.62996 102.37 1.62996 100.808 3.19206L92.8284 11.1716C91.2663 12.7337 88.7337 12.7337 87.1716 11.1716L79.1921 3.19206C77.63 1.62996 75.0973 1.62996 73.5352 3.19206L65.5557 11.1716C63.9936 12.7337 61.4609 12.7337 59.8988 11.1716L51.9193 3.19206C50.3572 1.62996 47.8246 1.62996 46.2625 3.19206L38.283 11.1716C36.7209 12.7337 34.1882 12.7337 32.6261 11.1716L24.2713 2.81671C22.8637 1.40915 20.6353 1.25078 19.0428 2.44514L6.41171 11.9185C4.81922 13.1129 2.59085 12.9545 1.18328 11.5469L-7.54692 2.81671C-8.95449 1.40915 -9.11285 -0.819229 -7.91849 -2.41171L1.55486 -15.0428C2.74922 -16.6353 2.59085 -18.8637 1.18328 -20.2713L-7.17157 -28.6261C-8.73367 -30.1882 -8.73367 -32.7209 -7.17157 -34.283L0.807937 -42.2625C2.37003 -43.8246 2.37003 -46.3572 0.807937 -47.9193L-7.17157 -55.8988C-8.73367 -57.4609 -8.73367 -59.9936 -7.17157 -61.5557L0.807937 -69.5352C2.37003 -71.0973 2.37003 -73.63 0.807937 -75.1921L-7.17157 -83.1716C-8.73367 -84.7337 -8.73367 -87.2663 -7.17157 -88.8284L0.807937 -96.8079C2.37003 -98.37 2.37003 -100.903 0.807937 -102.465L-7.17157 -110.444C-8.73367 -112.006 -8.73367 -114.539 -7.17157 -116.101L0.807937 -124.081C2.37003 -125.643 2.37003 -128.175 0.807937 -129.738L-7.17157 -137.717C-8.73367 -139.279 -8.73367 -141.812 -7.17157 -143.374L1.18328 -151.729C2.59085 -153.136 2.74922 -155.365 1.55485 -156.957L-7.91849 -169.588C-9.11285 -171.181 -8.95449 -173.409 -7.54692 -174.817L1.18328 -183.547C2.59085 -184.954 4.81923 -185.113 6.41171 -183.918L19.0428 -174.445C20.6353 -173.251 22.8637 -173.409 24.2713 -174.817L32.6261 -183.172C34.1882 -184.734 36.7209 -184.734 38.283 -183.172L46.2625 -175.192C47.8246 -173.63 50.3572 -173.63 51.9193 -175.192L59.8988 -183.172C61.4609 -184.734 63.9936 -184.734 65.5557 -183.172L73.5352 -175.192C75.0973 -173.63 77.63 -173.63 79.1921 -175.192L87.1716 -183.172C88.7337 -184.734 91.2663 -184.734 92.8284 -183.172L100.808 -175.192C102.37 -173.63 104.903 -173.63 106.465 -175.192L114.444 -183.172C116.006 -184.734 118.539 -184.734 120.101 -183.172L128.081 -175.192C129.643 -173.63 132.175 -173.63 133.738 -175.192L141.717 -183.172C143.279 -184.734 145.812 -184.734 147.374 -183.172L155.729 -174.817C157.136 -173.409 159.365 -173.251 160.957 -174.445L173.588 -183.918C175.181 -185.113 177.409 -184.954 178.817 -183.547L187.547 -174.817C188.954 -173.409 189.113 -171.181 187.918 -169.588L178.445 -156.957C177.251 -155.365 177.409 -153.136 178.817 -151.729L187.172 -143.374C188.734 -141.812 188.734 -139.279 187.172 -137.717L179.192 -129.738C177.63 -128.175 177.63 -125.643 179.192 -124.081L187.172 -116.101C188.734 -114.539 188.734 -112.006 187.172 -110.444L179.192 -102.465C177.63 -100.903 177.63 -98.37 179.192 -96.8079L187.172 -88.8284Z" fill="#FFFDFA"/>
<path d="M359.172 -88.8284C360.734 -87.2663 360.734 -84.7337 359.172 -83.1716L351.192 -75.1921C349.63 -73.63 349.63 -71.0973 351.192 -69.5352L359.172 -61.5557C360.734 -59.9936 360.734 -57.4609 359.172 -55.8988L351.192 -47.9193C349.63 -46.3572 349.63 -43.8246 351.192 -42.2625L359.172 -34.283C360.734 -32.7209 360.734 -30.1882 359.172 -28.6261L350.817 -20.2713C349.409 -18.8637 349.251 -16.6353 350.445 -15.0428L359.918 -2.41171C361.113 -0.819229 360.954 1.40915 359.547 2.81671L350.817 11.5469C349.409 12.9545 347.181 13.1129 345.588 11.9185L332.957 2.44514C331.365 1.25078 329.136 1.40915 327.729 2.81671L319.374 11.1716C317.812 12.7337 315.279 12.7337 313.717 11.1716L305.738 3.19206C304.175 1.62996 301.643 1.62996 300.081 3.19206L292.101 11.1716C290.539 12.7337 288.006 12.7337 286.444 11.1716L278.465 3.19206C276.903 1.62996 274.37 1.62996 272.808 3.19206L264.828 11.1716C263.266 12.7337 260.734 12.7337 259.172 11.1716L251.192 3.19206C249.63 1.62996 247.097 1.62996 245.535 3.19206L237.556 11.1716C235.994 12.7337 233.461 12.7337 231.899 11.1716L223.919 3.19206C222.357 1.62996 219.825 1.62996 218.262 3.19206L210.283 11.1716C208.721 12.7337 206.188 12.7337 204.626 11.1716L196.271 2.81671C194.864 1.40915 192.635 1.25078 191.043 2.44514L178.412 11.9185C176.819 13.1129 174.591 12.9545 173.183 11.5469L164.453 2.81671C163.046 1.40915 162.887 -0.819229 164.082 -2.41171L173.555 -15.0428C174.749 -16.6353 174.591 -18.8637 173.183 -20.2713L164.828 -28.6261C163.266 -30.1882 163.266 -32.7209 164.828 -34.283L172.808 -42.2625C174.37 -43.8246 174.37 -46.3572 172.808 -47.9193L164.828 -55.8988C163.266 -57.4609 163.266 -59.9936 164.828 -61.5557L172.808 -69.5352C174.37 -71.0973 174.37 -73.63 172.808 -75.1921L164.828 -83.1716C163.266 -84.7337 163.266 -87.2663 164.828 -88.8284L172.808 -96.8079C174.37 -98.37 174.37 -100.903 172.808 -102.465L164.828 -110.444C163.266 -112.006 163.266 -114.539 164.828 -116.101L172.808 -124.081C174.37 -125.643 174.37 -128.175 172.808 -129.738L164.828 -137.717C163.266 -139.279 163.266 -141.812 164.828 -143.374L173.183 -151.729C174.591 -153.136 174.749 -155.365 173.555 -156.957L164.082 -169.588C162.887 -171.181 163.046 -173.409 164.453 -174.817L173.183 -183.547C174.591 -184.954 176.819 -185.113 178.412 -183.918L191.043 -174.445C192.635 -173.251 194.864 -173.409 196.271 -174.817L204.626 -183.172C206.188 -184.734 208.721 -184.734 210.283 -183.172L218.262 -175.192C219.825 -173.63 222.357 -173.63 223.919 -175.192L231.899 -183.172C233.461 -184.734 235.994 -184.734 237.556 -183.172L245.535 -175.192C247.097 -173.63 249.63 -173.63 251.192 -175.192L259.172 -183.172C260.734 -184.734 263.266 -184.734 264.828 -183.172L272.808 -175.192C274.37 -173.63 276.903 -173.63 278.465 -175.192L286.444 -183.172C288.006 -184.734 290.539 -184.734 292.101 -183.172L300.081 -175.192C301.643 -173.63 304.175 -173.63 305.738 -175.192L313.717 -183.172C315.279 -184.734 317.812 -184.734 319.374 -183.172L327.729 -174.817C329.136 -173.409 331.365 -173.251 332.957 -174.445L345.588 -183.918C347.181 -185.113 349.409 -184.954 350.817 -183.547L359.547 -174.817C360.954 -173.409 361.113 -171.181 359.918 -169.588L350.445 -156.957C349.251 -155.365 349.409 -153.136 350.817 -151.729L359.172 -143.374C360.734 -141.812 360.734 -139.279 359.172 -137.717L351.192 -129.738C349.63 -128.175 349.63 -125.643 351.192 -124.081L359.172 -116.101C360.734 -114.539 360.734 -112.006 359.172 -110.444L351.192 -102.465C349.63 -100.903 349.63 -98.37 351.192 -96.8079L359.172 -88.8284Z" fill="#FFFDFA"/>
<path d="M531.172 -88.8284C532.734 -87.2663 532.734 -84.7337 531.172 -83.1716L523.192 -75.1921C521.63 -73.63 521.63 -71.0973 523.192 -69.5352L531.172 -61.5557C532.734 -59.9936 532.734 -57.4609 531.172 -55.8988L523.192 -47.9193C521.63 -46.3572 521.63 -43.8246 523.192 -42.2625L531.172 -34.283C532.734 -32.7209 532.734 -30.1882 531.172 -28.6261L522.817 -20.2713C521.409 -18.8637 521.251 -16.6353 522.445 -15.0428L531.918 -2.41171C533.113 -0.819229 532.954 1.40915 531.547 2.81671L522.817 11.5469C521.409 12.9545 519.181 13.1129 517.588 11.9185L504.957 2.44514C503.365 1.25078 501.136 1.40915 499.729 2.81671L491.374 11.1716C489.812 12.7337 487.279 12.7337 485.717 11.1716L477.738 3.19206C476.175 1.62996 473.643 1.62996 472.081 3.19206L464.101 11.1716C462.539 12.7337 460.006 12.7337 458.444 11.1716L450.465 3.19206C448.903 1.62996 446.37 1.62996 444.808 3.19206L436.828 11.1716C435.266 12.7337 432.734 12.7337 431.172 11.1716L423.192 3.19206C421.63 1.62996 419.097 1.62996 417.535 3.19206L409.556 11.1716C407.994 12.7337 405.461 12.7337 403.899 11.1716L395.919 3.19206C394.357 1.62996 391.825 1.62996 390.262 3.19206L382.283 11.1716C380.721 12.7337 378.188 12.7337 376.626 11.1716L368.271 2.81671C366.864 1.40915 364.635 1.25078 363.043 2.44514L350.412 11.9185C348.819 13.1129 346.591 12.9545 345.183 11.5469L336.453 2.81671C335.046 1.40915 334.887 -0.819229 336.082 -2.41171L345.555 -15.0428C346.749 -16.6353 346.591 -18.8637 345.183 -20.2713L336.828 -28.6261C335.266 -30.1882 335.266 -32.7209 336.828 -34.283L344.808 -42.2625C346.37 -43.8246 346.37 -46.3572 344.808 -47.9193L336.828 -55.8988C335.266 -57.4609 335.266 -59.9936 336.828 -61.5557L344.808 -69.5352C346.37 -71.0973 346.37 -73.63 344.808 -75.1921L336.828 -83.1716C335.266 -84.7337 335.266 -87.2663 336.828 -88.8284L344.808 -96.8079C346.37 -98.37 346.37 -100.903 344.808 -102.465L336.828 -110.444C335.266 -112.006 335.266 -114.539 336.828 -116.101L344.808 -124.081C346.37 -125.643 346.37 -128.175 344.808 -129.738L336.828 -137.717C335.266 -139.279 335.266 -141.812 336.828 -143.374L345.183 -151.729C346.591 -153.136 346.749 -155.365 345.555 -156.957L336.082 -169.588C334.887 -171.181 335.046 -173.409 336.453 -174.817L345.183 -183.547C346.591 -184.954 348.819 -185.113 350.412 -183.918L363.043 -174.445C364.635 -173.251 366.864 -173.409 368.271 -174.817L376.626 -183.172C378.188 -184.734 380.721 -184.734 382.283 -183.172L390.262 -175.192C391.825 -173.63 394.357 -173.63 395.919 -175.192L403.899 -183.172C405.461 -184.734 407.994 -184.734 409.556 -183.172L417.535 -175.192C419.097 -173.63 421.63 -173.63 423.192 -175.192L431.172 -183.172C432.734 -184.734 435.266 -184.734 436.828 -183.172L444.808 -175.192C446.37 -173.63 448.903 -173.63 450.465 -175.192L458.444 -183.172C460.006 -184.734 462.539 -184.734 464.101 -183.172L472.081 -175.192C473.643 -173.63 476.175 -173.63 477.738 -175.192L485.717 -183.172C487.279 -184.734 489.812 -184.734 491.374 -183.172L499.729 -174.817C501.136 -173.409 503.365 -173.251 504.957 -174.445L517.588 -183.918C519.181 -185.113 521.409 -184.954 522.817 -183.547L531.547 -174.817C532.954 -173.409 533.113 -171.181 531.918 -169.588L522.445 -156.957C521.251 -155.365 521.409 -153.136 522.817 -151.729L531.172 -143.374C532.734 -141.812 532.734 -139.279 531.172 -137.717L523.192 -129.738C521.63 -128.175 521.63 -125.643 523.192 -124.081L531.172 -116.101C532.734 -114.539 532.734 -112.006 531.172 -110.444L523.192 -102.465C521.63 -100.903 521.63 -98.37 523.192 -96.8079L531.172 -88.8284Z" fill="#FFFDFA"/>
<path d="M703.172 -88.8284C704.734 -87.2663 704.734 -84.7337 703.172 -83.1716L695.192 -75.1921C693.63 -73.63 693.63 -71.0973 695.192 -69.5352L703.172 -61.5557C704.734 -59.9936 704.734 -57.4609 703.172 -55.8988L695.192 -47.9193C693.63 -46.3572 693.63 -43.8246 695.192 -42.2625L703.172 -34.283C704.734 -32.7209 704.734 -30.1882 703.172 -28.6261L694.817 -20.2713C693.409 -18.8637 693.251 -16.6353 694.445 -15.0428L703.918 -2.41171C705.113 -0.819229 704.954 1.40915 703.547 2.81671L694.817 11.5469C693.409 12.9545 691.181 13.1129 689.588 11.9185L676.957 2.44514C675.365 1.25078 673.136 1.40915 671.729 2.81671L663.374 11.1716C661.812 12.7337 659.279 12.7337 657.717 11.1716L649.738 3.19206C648.175 1.62996 645.643 1.62996 644.081 3.19206L636.101 11.1716C634.539 12.7337 632.006 12.7337 630.444 11.1716L622.465 3.19206C620.903 1.62996 618.37 1.62996 616.808 3.19206L608.828 11.1716C607.266 12.7337 604.734 12.7337 603.172 11.1716L595.192 3.19206C593.63 1.62996 591.097 1.62996 589.535 3.19206L581.556 11.1716C579.994 12.7337 577.461 12.7337 575.899 11.1716L567.919 3.19206C566.357 1.62996 563.825 1.62996 562.262 3.19206L554.283 11.1716C552.721 12.7337 550.188 12.7337 548.626 11.1716L540.271 2.81671C538.864 1.40915 536.635 1.25078 535.043 2.44514L522.412 11.9185C520.819 13.1129 518.591 12.9545 517.183 11.5469L508.453 2.81671C507.046 1.40915 506.887 -0.819229 508.082 -2.41171L517.555 -15.0428C518.749 -16.6353 518.591 -18.8637 517.183 -20.2713L508.828 -28.6261C507.266 -30.1882 507.266 -32.7209 508.828 -34.283L516.808 -42.2625C518.37 -43.8246 518.37 -46.3572 516.808 -47.9193L508.828 -55.8988C507.266 -57.4609 507.266 -59.9936 508.828 -61.5557L516.808 -69.5352C518.37 -71.0973 518.37 -73.63 516.808 -75.1921L508.828 -83.1716C507.266 -84.7337 507.266 -87.2663 508.828 -88.8284L516.808 -96.8079C518.37 -98.37 518.37 -100.903 516.808 -102.465L508.828 -110.444C507.266 -112.006 507.266 -114.539 508.828 -116.101L516.808 -124.081C518.37 -125.643 518.37 -128.175 516.808 -129.738L508.828 -137.717C507.266 -139.279 507.266 -141.812 508.828 -143.374L517.183 -151.729C518.591 -153.136 518.749 -155.365 517.555 -156.957L508.082 -169.588C506.887 -171.181 507.046 -173.409 508.453 -174.817L517.183 -183.547C518.591 -184.954 520.819 -185.113 522.412 -183.918L535.043 -174.445C536.635 -173.251 538.864 -173.409 540.271 -174.817L548.626 -183.172C550.188 -184.734 552.721 -184.734 554.283 -183.172L562.262 -175.192C563.825 -173.63 566.357 -173.63 567.919 -175.192L575.899 -183.172C577.461 -184.734 579.994 -184.734 581.556 -183.172L589.535 -175.192C591.097 -173.63 593.63 -173.63 595.192 -175.192L603.172 -183.172C604.734 -184.734 607.266 -184.734 608.828 -183.172L616.808 -175.192C618.37 -173.63 620.903 -173.63 622.465 -175.192L630.444 -183.172C632.006 -184.734 634.539 -184.734 636.101 -183.172L644.081 -175.192C645.643 -173.63 648.175 -173.63 649.738 -175.192L657.717 -183.172C659.279 -184.734 661.812 -184.734 663.374 -183.172L671.729 -174.817C673.136 -173.409 675.365 -173.251 676.957 -174.445L689.588 -183.918C691.181 -185.113 693.409 -184.954 694.817 -183.547L703.547 -174.817C704.954 -173.409 705.113 -171.181 703.918 -169.588L694.445 -156.957C693.251 -155.365 693.409 -153.136 694.817 -151.729L703.172 -143.374C704.734 -141.812 704.734 -139.279 703.172 -137.717L695.192 -129.738C693.63 -128.175 693.63 -125.643 695.192 -124.081L703.172 -116.101C704.734 -114.539 704.734 -112.006 703.172 -110.444L695.192 -102.465C693.63 -100.903 693.63 -98.37 695.192 -96.8079L703.172 -88.8284Z" fill="#FFFDFA"/>
<path d="M875.172 -88.8284C876.734 -87.2663 876.734 -84.7337 875.172 -83.1716L867.192 -75.1921C865.63 -73.63 865.63 -71.0973 867.192 -69.5352L875.172 -61.5557C876.734 -59.9936 876.734 -57.4609 875.172 -55.8988L867.192 -47.9193C865.63 -46.3572 865.63 -43.8246 867.192 -42.2625L875.172 -34.283C876.734 -32.7209 876.734 -30.1882 875.172 -28.6261L866.817 -20.2713C865.409 -18.8637 865.251 -16.6353 866.445 -15.0428L875.918 -2.41171C877.113 -0.819229 876.954 1.40915 875.547 2.81671L866.817 11.5469C865.409 12.9545 863.181 13.1129 861.588 11.9185L848.957 2.44514C847.365 1.25078 845.136 1.40915 843.729 2.81671L835.374 11.1716C833.812 12.7337 831.279 12.7337 829.717 11.1716L821.738 3.19206C820.175 1.62996 817.643 1.62996 816.081 3.19206L808.101 11.1716C806.539 12.7337 804.006 12.7337 802.444 11.1716L794.465 3.19206C792.903 1.62996 790.37 1.62996 788.808 3.19206L780.828 11.1716C779.266 12.7337 776.734 12.7337 775.172 11.1716L767.192 3.19206C765.63 1.62996 763.097 1.62996 761.535 3.19206L753.556 11.1716C751.994 12.7337 749.461 12.7337 747.899 11.1716L739.919 3.19206C738.357 1.62996 735.825 1.62996 734.262 3.19206L726.283 11.1716C724.721 12.7337 722.188 12.7337 720.626 11.1716L712.271 2.81671C710.864 1.40915 708.635 1.25078 707.043 2.44514L694.412 11.9185C692.819 13.1129 690.591 12.9545 689.183 11.5469L680.453 2.81671C679.046 1.40915 678.887 -0.819229 680.082 -2.41171L689.555 -15.0428C690.749 -16.6353 690.591 -18.8637 689.183 -20.2713L680.828 -28.6261C679.266 -30.1882 679.266 -32.7209 680.828 -34.283L688.808 -42.2625C690.37 -43.8246 690.37 -46.3572 688.808 -47.9193L680.828 -55.8988C679.266 -57.4609 679.266 -59.9936 680.828 -61.5557L688.808 -69.5352C690.37 -71.0973 690.37 -73.63 688.808 -75.1921L680.828 -83.1716C679.266 -84.7337 679.266 -87.2663 680.828 -88.8284L688.808 -96.8079C690.37 -98.37 690.37 -100.903 688.808 -102.465L680.828 -110.444C679.266 -112.006 679.266 -114.539 680.828 -116.101L688.808 -124.081C690.37 -125.643 690.37 -128.175 688.808 -129.738L680.828 -137.717C679.266 -139.279 679.266 -141.812 680.828 -143.374L689.183 -151.729C690.591 -153.136 690.749 -155.365 689.555 -156.957L680.082 -169.588C678.887 -171.181 679.046 -173.409 680.453 -174.817L689.183 -183.547C690.591 -184.954 692.819 -185.113 694.412 -183.918L707.043 -174.445C708.635 -173.251 710.864 -173.409 712.271 -174.817L720.626 -183.172C722.188 -184.734 724.721 -184.734 726.283 -183.172L734.262 -175.192C735.825 -173.63 738.357 -173.63 739.919 -175.192L747.899 -183.172C749.461 -184.734 751.994 -184.734 753.556 -183.172L761.535 -175.192C763.097 -173.63 765.63 -173.63 767.192 -175.192L775.172 -183.172C776.734 -184.734 779.266 -184.734 780.828 -183.172L788.808 -175.192C790.37 -173.63 792.903 -173.63 794.465 -175.192L802.444 -183.172C804.006 -184.734 806.539 -184.734 808.101 -183.172L816.081 -175.192C817.643 -173.63 820.175 -173.63 821.738 -175.192L829.717 -183.172C831.279 -184.734 833.812 -184.734 835.374 -183.172L843.729 -174.817C845.136 -173.409 847.365 -173.251 848.957 -174.445L861.588 -183.918C863.181 -185.113 865.409 -184.954 866.817 -183.547L875.547 -174.817C876.954 -173.409 877.113 -171.181 875.918 -169.588L866.445 -156.957C865.251 -155.365 865.409 -153.136 866.817 -151.729L875.172 -143.374C876.734 -141.812 876.734 -139.279 875.172 -137.717L867.192 -129.738C865.63 -128.175 865.63 -125.643 867.192 -124.081L875.172 -116.101C876.734 -114.539 876.734 -112.006 875.172 -110.444L867.192 -102.465C865.63 -100.903 865.63 -98.37 867.192 -96.8079L875.172 -88.8284Z" fill="#FFFDFA"/>
<path d="M1047.17 -88.8284C1048.73 -87.2663 1048.73 -84.7337 1047.17 -83.1716L1039.19 -75.1921C1037.63 -73.63 1037.63 -71.0973 1039.19 -69.5352L1047.17 -61.5557C1048.73 -59.9936 1048.73 -57.4609 1047.17 -55.8988L1039.19 -47.9193C1037.63 -46.3572 1037.63 -43.8246 1039.19 -42.2625L1047.17 -34.283C1048.73 -32.7209 1048.73 -30.1882 1047.17 -28.6261L1038.82 -20.2713C1037.41 -18.8637 1037.25 -16.6353 1038.45 -15.0428L1047.92 -2.41171C1049.11 -0.819229 1048.95 1.40915 1047.55 2.81671L1038.82 11.5469C1037.41 12.9545 1035.18 13.1129 1033.59 11.9185L1020.96 2.44514C1019.36 1.25078 1017.14 1.40915 1015.73 2.81671L1007.37 11.1716C1005.81 12.7337 1003.28 12.7337 1001.72 11.1716L993.738 3.19206C992.175 1.62996 989.643 1.62996 988.081 3.19206L980.101 11.1716C978.539 12.7337 976.006 12.7337 974.444 11.1716L966.465 3.19206C964.903 1.62996 962.37 1.62996 960.808 3.19206L952.828 11.1716C951.266 12.7337 948.734 12.7337 947.172 11.1716L939.192 3.19206C937.63 1.62996 935.097 1.62996 933.535 3.19206L925.556 11.1716C923.994 12.7337 921.461 12.7337 919.899 11.1716L911.919 3.19206C910.357 1.62996 907.825 1.62996 906.262 3.19206L898.283 11.1716C896.721 12.7337 894.188 12.7337 892.626 11.1716L884.271 2.81671C882.864 1.40915 880.635 1.25078 879.043 2.44514L866.412 11.9185C864.819 13.1129 862.591 12.9545 861.183 11.5469L852.453 2.81671C851.046 1.40915 850.887 -0.819229 852.082 -2.41171L861.555 -15.0428C862.749 -16.6353 862.591 -18.8637 861.183 -20.2713L852.828 -28.6261C851.266 -30.1882 851.266 -32.7209 852.828 -34.283L860.808 -42.2625C862.37 -43.8246 862.37 -46.3572 860.808 -47.9193L852.828 -55.8988C851.266 -57.4609 851.266 -59.9936 852.828 -61.5557L860.808 -69.5352C862.37 -71.0973 862.37 -73.63 860.808 -75.1921L852.828 -83.1716C851.266 -84.7337 851.266 -87.2663 852.828 -88.8284L860.808 -96.8079C862.37 -98.37 862.37 -100.903 860.808 -102.465L852.828 -110.444C851.266 -112.006 851.266 -114.539 852.828 -116.101L860.808 -124.081C862.37 -125.643 862.37 -128.175 860.808 -129.738L852.828 -137.717C851.266 -139.279 851.266 -141.812 852.828 -143.374L861.183 -151.729C862.591 -153.136 862.749 -155.365 861.555 -156.957L852.082 -169.588C850.887 -171.181 851.046 -173.409 852.453 -174.817L861.183 -183.547C862.591 -184.954 864.819 -185.113 866.412 -183.918L879.043 -174.445C880.635 -173.251 882.864 -173.409 884.271 -174.817L892.626 -183.172C894.188 -184.734 896.721 -184.734 898.283 -183.172L906.262 -175.192C907.825 -173.63 910.357 -173.63 911.919 -175.192L919.899 -183.172C921.461 -184.734 923.994 -184.734 925.556 -183.172L933.535 -175.192C935.097 -173.63 937.63 -173.63 939.192 -175.192L947.172 -183.172C948.734 -184.734 951.266 -184.734 952.828 -183.172L960.808 -175.192C962.37 -173.63 964.903 -173.63 966.465 -175.192L974.444 -183.172C976.006 -184.734 978.539 -184.734 980.101 -183.172L988.081 -175.192C989.643 -173.63 992.175 -173.63 993.738 -175.192L1001.72 -183.172C1003.28 -184.734 1005.81 -184.734 1007.37 -183.172L1015.73 -174.817C1017.14 -173.409 1019.36 -173.251 1020.96 -174.445L1033.59 -183.918C1035.18 -185.113 1037.41 -184.954 1038.82 -183.547L1047.55 -174.817C1048.95 -173.409 1049.11 -171.181 1047.92 -169.588L1038.45 -156.957C1037.25 -155.365 1037.41 -153.136 1038.82 -151.729L1047.17 -143.374C1048.73 -141.812 1048.73 -139.279 1047.17 -137.717L1039.19 -129.738C1037.63 -128.175 1037.63 -125.643 1039.19 -124.081L1047.17 -116.101C1048.73 -114.539 1048.73 -112.006 1047.17 -110.444L1039.19 -102.465C1037.63 -100.903 1037.63 -98.37 1039.19 -96.8079L1047.17 -88.8284Z" fill="#FFFDFA"/>
<path d="M1219.17 -88.8284C1220.73 -87.2663 1220.73 -84.7337 1219.17 -83.1716L1211.19 -75.1921C1209.63 -73.63 1209.63 -71.0973 1211.19 -69.5352L1219.17 -61.5557C1220.73 -59.9936 1220.73 -57.4609 1219.17 -55.8988L1211.19 -47.9193C1209.63 -46.3572 1209.63 -43.8246 1211.19 -42.2625L1219.17 -34.283C1220.73 -32.7209 1220.73 -30.1882 1219.17 -28.6261L1210.82 -20.2713C1209.41 -18.8637 1209.25 -16.6353 1210.45 -15.0428L1219.92 -2.41171C1221.11 -0.819229 1220.95 1.40915 1219.55 2.81671L1210.82 11.5469C1209.41 12.9545 1207.18 13.1129 1205.59 11.9185L1192.96 2.44514C1191.36 1.25078 1189.14 1.40915 1187.73 2.81671L1179.37 11.1716C1177.81 12.7337 1175.28 12.7337 1173.72 11.1716L1165.74 3.19206C1164.18 1.62996 1161.64 1.62996 1160.08 3.19206L1152.1 11.1716C1150.54 12.7337 1148.01 12.7337 1146.44 11.1716L1138.46 3.19206C1136.9 1.62996 1134.37 1.62996 1132.81 3.19206L1124.83 11.1716C1123.27 12.7337 1120.73 12.7337 1119.17 11.1716L1111.19 3.19206C1109.63 1.62996 1107.1 1.62996 1105.54 3.19206L1097.56 11.1716C1095.99 12.7337 1093.46 12.7337 1091.9 11.1716L1083.92 3.19206C1082.36 1.62996 1079.82 1.62996 1078.26 3.19206L1070.28 11.1716C1068.72 12.7337 1066.19 12.7337 1064.63 11.1716L1056.27 2.81671C1054.86 1.40915 1052.64 1.25078 1051.04 2.44514L1038.41 11.9185C1036.82 13.1129 1034.59 12.9545 1033.18 11.5469L1024.45 2.81671C1023.05 1.40915 1022.89 -0.819229 1024.08 -2.41171L1033.55 -15.0428C1034.75 -16.6353 1034.59 -18.8637 1033.18 -20.2713L1024.83 -28.6261C1023.27 -30.1882 1023.27 -32.7209 1024.83 -34.283L1032.81 -42.2625C1034.37 -43.8246 1034.37 -46.3572 1032.81 -47.9193L1024.83 -55.8988C1023.27 -57.4609 1023.27 -59.9936 1024.83 -61.5557L1032.81 -69.5352C1034.37 -71.0973 1034.37 -73.63 1032.81 -75.1921L1024.83 -83.1716C1023.27 -84.7337 1023.27 -87.2663 1024.83 -88.8284L1032.81 -96.8079C1034.37 -98.37 1034.37 -100.903 1032.81 -102.465L1024.83 -110.444C1023.27 -112.006 1023.27 -114.539 1024.83 -116.101L1032.81 -124.081C1034.37 -125.643 1034.37 -128.175 1032.81 -129.738L1024.83 -137.717C1023.27 -139.279 1023.27 -141.812 1024.83 -143.374L1033.18 -151.729C1034.59 -153.136 1034.75 -155.365 1033.55 -156.957L1024.08 -169.588C1022.89 -171.181 1023.05 -173.409 1024.45 -174.817L1033.18 -183.547C1034.59 -184.954 1036.82 -185.113 1038.41 -183.918L1051.04 -174.445C1052.64 -173.251 1054.86 -173.409 1056.27 -174.817L1064.63 -183.172C1066.19 -184.734 1068.72 -184.734 1070.28 -183.172L1078.26 -175.192C1079.82 -173.63 1082.36 -173.63 1083.92 -175.192L1091.9 -183.172C1093.46 -184.734 1095.99 -184.734 1097.56 -183.172L1105.54 -175.192C1107.1 -173.63 1109.63 -173.63 1111.19 -175.192L1119.17 -183.172C1120.73 -184.734 1123.27 -184.734 1124.83 -183.172L1132.81 -175.192C1134.37 -173.63 1136.9 -173.63 1138.46 -175.192L1146.44 -183.172C1148.01 -184.734 1150.54 -184.734 1152.1 -183.172L1160.08 -175.192C1161.64 -173.63 1164.18 -173.63 1165.74 -175.192L1173.72 -183.172C1175.28 -184.734 1177.81 -184.734 1179.37 -183.172L1187.73 -174.817C1189.14 -173.409 1191.36 -173.251 1192.96 -174.445L1205.59 -183.918C1207.18 -185.113 1209.41 -184.954 1210.82 -183.547L1219.55 -174.817C1220.95 -173.409 1221.11 -171.181 1219.92 -169.588L1210.45 -156.957C1209.25 -155.365 1209.41 -153.136 1210.82 -151.729L1219.17 -143.374C1220.73 -141.812 1220.73 -139.279 1219.17 -137.717L1211.19 -129.738C1209.63 -128.175 1209.63 -125.643 1211.19 -124.081L1219.17 -116.101C1220.73 -114.539 1220.73 -112.006 1219.17 -110.444L1211.19 -102.465C1209.63 -100.903 1209.63 -98.37 1211.19 -96.8079L1219.17 -88.8284Z" fill="#FFFDFA"/>
<path d="M1391.17 -88.8284C1392.73 -87.2663 1392.73 -84.7337 1391.17 -83.1716L1383.19 -75.1921C1381.63 -73.63 1381.63 -71.0973 1383.19 -69.5352L1391.17 -61.5557C1392.73 -59.9936 1392.73 -57.4609 1391.17 -55.8988L1383.19 -47.9193C1381.63 -46.3572 1381.63 -43.8246 1383.19 -42.2625L1391.17 -34.283C1392.73 -32.7209 1392.73 -30.1882 1391.17 -28.6261L1382.82 -20.2713C1381.41 -18.8637 1381.25 -16.6353 1382.45 -15.0428L1391.92 -2.41171C1393.11 -0.819229 1392.95 1.40915 1391.55 2.81671L1382.82 11.5469C1381.41 12.9545 1379.18 13.1129 1377.59 11.9185L1364.96 2.44514C1363.36 1.25078 1361.14 1.40915 1359.73 2.81671L1351.37 11.1716C1349.81 12.7337 1347.28 12.7337 1345.72 11.1716L1337.74 3.19206C1336.18 1.62996 1333.64 1.62996 1332.08 3.19206L1324.1 11.1716C1322.54 12.7337 1320.01 12.7337 1318.44 11.1716L1310.46 3.19206C1308.9 1.62996 1306.37 1.62996 1304.81 3.19206L1296.83 11.1716C1295.27 12.7337 1292.73 12.7337 1291.17 11.1716L1283.19 3.19206C1281.63 1.62996 1279.1 1.62996 1277.54 3.19206L1269.56 11.1716C1267.99 12.7337 1265.46 12.7337 1263.9 11.1716L1255.92 3.19206C1254.36 1.62996 1251.82 1.62996 1250.26 3.19206L1242.28 11.1716C1240.72 12.7337 1238.19 12.7337 1236.63 11.1716L1228.27 2.81671C1226.86 1.40915 1224.64 1.25078 1223.04 2.44514L1210.41 11.9185C1208.82 13.1129 1206.59 12.9545 1205.18 11.5469L1196.45 2.81671C1195.05 1.40915 1194.89 -0.819229 1196.08 -2.41171L1205.55 -15.0428C1206.75 -16.6353 1206.59 -18.8637 1205.18 -20.2713L1196.83 -28.6261C1195.27 -30.1882 1195.27 -32.7209 1196.83 -34.283L1204.81 -42.2625C1206.37 -43.8246 1206.37 -46.3572 1204.81 -47.9193L1196.83 -55.8988C1195.27 -57.4609 1195.27 -59.9936 1196.83 -61.5557L1204.81 -69.5352C1206.37 -71.0973 1206.37 -73.63 1204.81 -75.1921L1196.83 -83.1716C1195.27 -84.7337 1195.27 -87.2663 1196.83 -88.8284L1204.81 -96.8079C1206.37 -98.37 1206.37 -100.903 1204.81 -102.465L1196.83 -110.444C1195.27 -112.006 1195.27 -114.539 1196.83 -116.101L1204.81 -124.081C1206.37 -125.643 1206.37 -128.175 1204.81 -129.738L1196.83 -137.717C1195.27 -139.279 1195.27 -141.812 1196.83 -143.374L1205.18 -151.729C1206.59 -153.136 1206.75 -155.365 1205.55 -156.957L1196.08 -169.588C1194.89 -171.181 1195.05 -173.409 1196.45 -174.817L1205.18 -183.547C1206.59 -184.954 1208.82 -185.113 1210.41 -183.918L1223.04 -174.445C1224.64 -173.251 1226.86 -173.409 1228.27 -174.817L1236.63 -183.172C1238.19 -184.734 1240.72 -184.734 1242.28 -183.172L1250.26 -175.192C1251.82 -173.63 1254.36 -173.63 1255.92 -175.192L1263.9 -183.172C1265.46 -184.734 1267.99 -184.734 1269.56 -183.172L1277.54 -175.192C1279.1 -173.63 1281.63 -173.63 1283.19 -175.192L1291.17 -183.172C1292.73 -184.734 1295.27 -184.734 1296.83 -183.172L1304.81 -175.192C1306.37 -173.63 1308.9 -173.63 1310.46 -175.192L1318.44 -183.172C1320.01 -184.734 1322.54 -184.734 1324.1 -183.172L1332.08 -175.192C1333.64 -173.63 1336.18 -173.63 1337.74 -175.192L1345.72 -183.172C1347.28 -184.734 1349.81 -184.734 1351.37 -183.172L1359.73 -174.817C1361.14 -173.409 1363.36 -173.251 1364.96 -174.445L1377.59 -183.918C1379.18 -185.113 1381.41 -184.954 1382.82 -183.547L1391.55 -174.817C1392.95 -173.409 1393.11 -171.181 1391.92 -169.588L1382.45 -156.957C1381.25 -155.365 1381.41 -153.136 1382.82 -151.729L1391.17 -143.374C1392.73 -141.812 1392.73 -139.279 1391.17 -137.717L1383.19 -129.738C1381.63 -128.175 1381.63 -125.643 1383.19 -124.081L1391.17 -116.101C1392.73 -114.539 1392.73 -112.006 1391.17 -110.444L1383.19 -102.465C1381.63 -100.903 1381.63 -98.37 1383.19 -96.8079L1391.17 -88.8284Z" fill="#FFFDFA"/>
</svg>
