<svg width="23" height="15" viewBox="0 0 23 15" fill="none" xmlns="http://www.w3.org/2000/svg">
<g clip-path="url(#clip0_16_122)">
<mask id="mask0_16_122" style="mask-type:luminance" maskUnits="userSpaceOnUse" x="0" y="-5" width="23" height="23">
<path d="M0 -4.6875H22.5V17.8125H0V-4.6875Z" fill="white"/>
</mask>
<g mask="url(#mask0_16_122)">
<path fill-rule="evenodd" clip-rule="evenodd" d="M5.625 -4.6875H16.875V17.8125H5.625V-4.6875Z" fill="#F7FCFF"/>
<path fill-rule="evenodd" clip-rule="evenodd" d="M11.2331 2.26541L11.25 12.5779H10.8281L11.0869 10.0256C9.19547 10.4419 8.32781 10.5451 8.48461 10.3349C8.6407 10.1255 8.76375 9.82834 8.85375 9.44291L6.32812 7.38363C6.59194 7.38027 6.84673 7.29507 7.05094 7.14193C7.2668 6.98467 7.15852 6.44004 6.7268 5.50869L8.00156 5.73557L8.48461 5.09426L9.44648 6.32531H9.87891L9.44648 3.50613L10.222 4.03529L11.2331 2.26541ZM11.2331 2.26541L12.278 4.03529L13.0535 3.50613L12.6211 6.32531H13.0535L14.0154 5.09426L14.4977 5.73557L15.7732 5.50869C15.3415 6.44004 15.2332 6.98467 15.4498 7.14193C15.6656 7.29855 15.9068 7.37912 16.1719 7.38363L13.6455 9.44291C13.7362 9.82834 13.8593 10.1255 14.0154 10.3349C14.1722 10.5451 13.3045 10.4419 11.4131 10.0256L11.6712 12.5779H11.25L11.2331 2.26541ZM16.875 0H22.5V15H16.875V0ZM0 0H5.625V15H0V0Z" fill="#E31D1C"/>
</g>
</g>
<defs>
<clipPath id="clip0_16_122">
<rect width="22.5" height="15" rx="1.5" fill="white"/>
</clipPath>
</defs>
</svg>
