<svg width="109" height="10" viewBox="0 0 109 10" fill="none" xmlns="http://www.w3.org/2000/svg">
<path d="M2 6C0.89543 6 0 6.89543 0 8C0 9.10457 0.89543 10 2 10V6ZM2 10C5.61317 10 7.46377 7.79288 8.75516 6.31701C10.0888 4.79288 10.8632 4 12.5 4V0C8.88683 0 7.03624 2.20712 5.74485 3.68299C4.41124 5.20712 3.63683 6 2 6V10Z" fill="black"/>
<path d="M12.5 4C14.1368 4 14.9112 4.79288 16.2449 6.31701C17.5362 7.79288 19.3868 10 23 10V6C21.3632 6 20.5888 5.20712 19.2552 3.68299C17.9638 2.20712 16.1132 0 12.5 0V4Z" fill="black"/>
<path d="M23 10C26.6132 10 28.4638 7.79288 29.7551 6.31701C31.0888 4.79288 31.8632 4 33.5 4V0C29.8868 0 28.0362 2.20712 26.7448 3.68299C25.4112 5.20712 24.6368 6 23 6V10Z" fill="black"/>
<path d="M33.5 4C35.1368 4 35.9112 4.79288 37.2448 6.31701C38.5362 7.79288 40.3868 10 44 10V6C42.3632 6 41.5888 5.20712 40.2551 3.68299C38.9638 2.20712 37.1132 0 33.5 0V4Z" fill="black"/>
<path d="M44 10C47.6132 10 49.4638 7.79288 50.7551 6.31701C52.0888 4.79288 52.8632 4 54.5 4V0C50.8868 0 49.0362 2.20712 47.7448 3.68299C46.4112 5.20712 45.6368 6 44 6V10Z" fill="black"/>
<path d="M54.5 4C56.1368 4 56.9112 4.79288 58.2448 6.31701C59.5362 7.79288 61.3868 10 65 10V6C63.3632 6 62.5888 5.20712 61.2551 3.68299C59.9638 2.20712 58.1132 0 54.5 0V4Z" fill="black"/>
<path d="M65 10C68.6132 10 70.4638 7.79288 71.7551 6.31701C73.0888 4.79288 73.8632 4 75.5 4V0C71.8868 0 70.0362 2.20712 68.7448 3.68299C67.4112 5.20712 66.6368 6 65 6V10Z" fill="black"/>
<path d="M75.5 4C77.1368 4 77.9112 4.79288 79.2448 6.31701C80.5362 7.79288 82.3868 10 86 10V6C84.3632 6 83.5888 5.20712 82.2551 3.68299C80.9638 2.20712 79.1132 0 75.5 0V4Z" fill="black"/>
<path d="M86 10C89.6132 10 91.4638 7.79288 92.7551 6.31701C94.0888 4.79288 94.8632 4 96.5 4V0C92.8868 0 91.0362 2.20712 89.7448 3.68299C88.4112 5.20712 87.6368 6 86 6V10Z" fill="black"/>
<path d="M96.5 4C98.1368 4 98.9112 4.79288 100.245 6.31701C101.536 7.79288 103.387 10 107 10V6C105.363 6 104.589 5.20712 103.255 3.68299C101.964 2.20712 100.113 0 96.5 0V4ZM107 10C108.105 10 109 9.10457 109 8C109 6.89543 108.105 6 107 6V10Z" fill="black"/>
</svg>
