<svg width="20" height="20" viewBox="0 0 20 20" fill="none" xmlns="http://www.w3.org/2000/svg">
<circle cx="9.77777" cy="9.99997" r="8.88889" fill="#F2F0F2"/>
<mask id="mask0_20_3221" style="mask-type:alpha" maskUnits="userSpaceOnUse" x="0" y="1" width="19" height="18">
<circle cx="9.77777" cy="9.99997" r="8.88889" fill="#FCFCFC"/>
</mask>
<g mask="url(#mask0_20_3221)">
<rect x="3.77798" y="16.8889" width="12.2222" height="2.22222" fill="#D90026"/>
<rect x="3.77798" y="16.8889" width="12.2222" height="2.22222" fill="#D90026"/>
<rect x="1.11133" y="12.4445" width="17.5556" height="2.22222" fill="#D90026"/>
<rect x="1.11133" y="12.4445" width="17.5556" height="2.22222" fill="#D90026"/>
<rect x="1.11133" y="7.77777" width="17.5556" height="2.22222" fill="#D90026"/>
<rect x="1.11133" y="7.77777" width="17.5556" height="2.22222" fill="#D90026"/>
<rect x="1.11133" y="3.33331" width="17.5556" height="2.22222" fill="#D90026"/>
<rect x="1.11133" y="3.33331" width="17.5556" height="2.22222" fill="#D90026"/>
<rect x="0.888885" y="1.11108" width="9.11111" height="8.88889" fill="#0052B5"/>
<path d="M8.22245 8.55553L7.55578 8.88886L7.778 8.2222L7.33356 7.77775H8.00022L8.22245 7.11108L8.55578 7.77775H9.11133L8.66689 8.2222L8.88911 8.88886L8.22245 8.55553Z" fill="#EFEFEF"/>
<path d="M5.11133 8.55553L4.44466 8.88886L4.66689 8.2222L4.22244 7.77775H4.88911L5.11133 7.11108L5.44466 7.77775H6.00022L5.55578 8.2222L5.778 8.88886L5.11133 8.55553Z" fill="#EFEFEF"/>
<path d="M2.00022 8.55553L1.33355 8.88886L1.55577 8.2222L1.11133 7.77775H1.77799L2.00022 7.11108L2.33355 7.77775H2.88911L2.44466 8.2222L2.66688 8.88886L2.00022 8.55553Z" fill="#EFEFEF"/>
<path d="M8.22245 6.11113L7.55578 6.44446L7.778 5.7778L7.33356 5.33335H8.00022L8.22245 4.66669L8.55578 5.33335H9.11133L8.66689 5.7778L8.88911 6.44446L8.22245 6.11113Z" fill="#EFEFEF"/>
<path d="M8.22245 3.66667L7.55578 4.00001L7.778 3.33334L7.33356 2.8889H8.00022L8.22245 2.22223L8.55578 2.8889H9.11133L8.66689 3.33334L8.88911 4.00001L8.22245 3.66667Z" fill="#EFEFEF"/>
<path d="M8.22245 1.22222L7.55578 1.55555L7.778 0.888882L7.33356 0.444438H8.00022L8.22245 -0.222229L8.55578 0.444438H9.11133L8.66689 0.888882L8.88911 1.55555L8.22245 1.22222Z" fill="#EFEFEF"/>
<path d="M5.11133 3.66667L4.44466 4.00001L4.66689 3.33334L4.22244 2.8889H4.88911L5.11133 2.22223L5.44466 2.8889H6.00022L5.55578 3.33334L5.778 4.00001L5.11133 3.66667Z" fill="#EFEFEF"/>
<path d="M5.11133 6.11113L4.44466 6.44446L4.66689 5.7778L4.22244 5.33335H4.88911L5.11133 4.66669L5.44466 5.33335H6.00022L5.55578 5.7778L5.778 6.44446L5.11133 6.11113Z" fill="#EFEFEF"/>
<path d="M2.00022 6.11113L1.33355 6.44446L1.55577 5.7778L1.11133 5.33335H1.77799L2.00022 4.66669L2.33355 5.33335H2.88911L2.44466 5.7778L2.66688 6.44446L2.00022 6.11113Z" fill="#EFEFEF"/>
</g>
</svg>
