<svg width="20" height="21" viewBox="0 0 20 21" fill="none" xmlns="http://www.w3.org/2000/svg">
<path d="M10 19.3889C5.09081 19.3889 1.11111 15.4092 1.11111 10.5C1.11111 5.59078 5.09081 1.61108 10 1.61108C14.9092 1.61108 18.8889 5.59078 18.8889 10.5C18.8889 15.4092 14.9092 19.3889 10 19.3889Z" fill="#D90026"/>
<path d="M18.3292 7.38886C17.0681 4.01405 13.8147 1.61108 10 1.61108C6.18531 1.61108 2.93187 4.01405 1.67077 7.38886L18.3292 7.38886Z" fill="black"/>
<path d="M1.67077 13.6111C2.93186 16.9859 6.18531 19.3889 10 19.3889C13.8147 19.3889 17.0681 16.9859 18.3292 13.6111L1.67077 13.6111Z" fill="#FFDB44"/>
</svg>
