<svg width="20" height="20" viewBox="0 0 20 20" fill="none" xmlns="http://www.w3.org/2000/svg">
<path d="M9.77777 18.8889C4.86858 18.8889 0.888885 14.9092 0.888885 9.99997C0.888886 5.09078 4.86858 1.11108 9.77777 1.11108C14.687 1.11108 18.6667 5.09078 18.6667 9.99997C18.6667 14.9092 14.687 18.8889 9.77777 18.8889Z" fill="#FFDB44"/>
<path d="M18.107 6.88886C16.8459 3.51405 13.5925 1.11108 9.77777 1.11108C5.96308 1.11108 2.70964 3.51405 1.44854 6.88886L18.107 6.88886Z" fill="#D90026"/>
<path d="M1.44854 13.1111C2.70964 16.4859 5.96308 18.8889 9.77777 18.8889C13.5925 18.8889 16.8459 16.4859 18.107 13.1111L1.44854 13.1111Z" fill="#D90026"/>
</svg>
