<svg width="20" height="20" viewBox="0 0 20 20" fill="none" xmlns="http://www.w3.org/2000/svg">
<path d="M9.77777 18.8889C4.86858 18.8889 0.888885 14.9092 0.888885 9.99997C0.888886 5.09078 4.86858 1.11108 9.77777 1.11108C14.687 1.11108 18.6667 5.09078 18.6667 9.99997C18.6667 14.9092 14.687 18.8889 9.77777 18.8889Z" fill="#D90026"/>
<path d="M11.0942 6.66588L10.2204 6.57179L10.8656 6.05204L10.7079 5.32798L11.3693 5.75273L12.0145 5.23298L11.9204 6.1067L12.4715 6.46066L11.7474 6.61838L11.5431 7.4213L11.0942 6.66588Z" fill="#FFDB44"/>
<path d="M5.77778 11.5833L3.61111 12.6666L4.33333 10.5L2.88889 9.05553H5.05555L5.77778 6.88886L6.86111 9.05553H8.66666L7.22222 10.5L7.94444 12.6666L5.77778 11.5833Z" fill="#FFDB44"/>
<path d="M11.0942 13.3414L10.2204 13.4355L10.8656 13.9553L10.7079 14.6793L11.3693 14.2546L12.0145 14.7743L11.9204 13.9006L12.4715 13.5466L11.7474 13.3889L11.5431 12.586L11.0942 13.3414Z" fill="#FFDB44"/>
<path d="M13.2031 9.01565L12.3929 8.67541L13.1599 8.36208L13.216 7.62317L13.7281 8.21945L14.4951 7.90613L14.1548 8.71635L14.5816 9.21326L13.8427 9.15713L13.4171 9.86797L13.2031 9.01565Z" fill="#FFDB44"/>
<path d="M13.2031 11.4955L12.3929 11.8357L13.1599 12.1491L13.216 12.888L13.7281 12.2917L14.4951 12.605L14.1548 11.7948L14.5816 11.2979L13.8427 11.354L13.4171 10.6432L13.2031 11.4955Z" fill="#FFDB44"/>
</svg>
