<svg width="23" height="23" viewBox="0 0 23 23" fill="none" xmlns="http://www.w3.org/2000/svg">
<path d="M18.0625 19C16.4514 19 14.809 18.6111 13.1354 17.8333C11.4618 17.0555 9.90971 15.9514 8.47917 14.5208C7.04862 13.0903 5.94446 11.5382 5.16667 9.86458C4.38889 8.19096 4 6.54862 4 4.9375C4 4.66958 4.0893 4.44639 4.26792 4.26792C4.44639 4.0893 4.66958 4 4.9375 4H7.85417C8.04862 4 8.21529 4.06945 8.35417 4.20833C8.49304 4.34722 8.59029 4.52083 8.64583 4.72917L9.20687 7.34667C9.23562 7.54612 9.23263 7.72571 9.19792 7.88542C9.16321 8.04513 9.08867 8.18217 8.97437 8.29646L6.89583 10.3958C7.25696 11.007 7.63887 11.5764 8.04167 12.1042C8.44446 12.632 8.88887 13.132 9.375 13.6042C9.88887 14.132 10.4305 14.6146 11 15.0521C11.5695 15.4896 12.1667 15.875 12.7917 16.2083L14.7708 14.1667C14.9097 14.0139 15.0705 13.9097 15.2531 13.8542C15.4358 13.7986 15.6153 13.7847 15.7917 13.8125L18.2708 14.3542C18.4792 14.4097 18.6528 14.5211 18.7917 14.6883C18.9305 14.8557 19 15.0429 19 15.25V18.0625C19 18.3304 18.9107 18.5536 18.7321 18.7321C18.5536 18.9107 18.3304 19 18.0625 19ZM6.27083 9.25L7.95833 7.54167L7.47917 5.25H5.25C5.27778 5.83333 5.37153 6.44792 5.53125 7.09375C5.69096 7.73958 5.9375 8.45833 6.27083 9.25ZM13.9583 16.8125C14.5278 17.0764 15.1458 17.2917 15.8125 17.4583C16.4792 17.625 17.125 17.7222 17.75 17.75V15.5208L15.6042 15.0833L13.9583 16.8125Z" fill="black"/>
<path d="M13.9583 16.8125C14.5278 17.0764 15.1458 17.2917 15.8125 17.4583C16.4792 17.625 17.125 17.7222 17.75 17.75V15.5208L15.6042 15.0833L13.9583 16.8125Z" fill="black"/>
<path d="M6.27083 9.25L7.95833 7.54167L7.47917 5.25H5.25C5.27778 5.83333 5.37153 6.44792 5.53125 7.09375C5.69096 7.73958 5.9375 8.45833 6.27083 9.25Z" fill="black"/>
</svg>
